<svg width="403" height="69" viewBox="0 0 403 69" fill="none" xmlns="http://www.w3.org/2000/svg">
<path d="M23.075 15.9149C25.0695 15.9149 26.9133 16.197 28.6067 16.7611C30.3001 17.3253 31.7866 18.1526 33.0661 19.2433V29.4542C31.5608 28.2507 30.1307 27.3481 28.7761 26.7463C27.4213 26.1069 25.6528 25.7872 23.4702 25.7872C21.7768 25.7872 20.1962 26.2197 18.7287 27.0847C17.2987 27.9498 16.1322 29.1344 15.229 30.6389C14.3259 32.1055 13.8743 33.7792 13.8743 35.6597C13.8743 37.54 14.3259 39.2324 15.229 40.7368C16.1322 42.2036 17.2987 43.3694 18.7287 44.2345C20.1962 45.0995 21.7768 45.532 23.4702 45.532C25.6528 45.532 27.4213 45.2311 28.7761 44.6294C30.1307 43.9901 31.5608 43.0685 33.0661 41.865V52.0759C31.7866 53.1666 30.3001 53.9939 28.6067 54.5581C26.9133 55.1223 25.0695 55.4043 23.075 55.4043C20.5161 55.4043 18.0326 54.9718 15.6241 54.1069C13.2534 53.2041 11.1085 51.9068 9.1893 50.2143C7.30775 48.5219 5.80252 46.4534 4.67361 44.0088C3.58232 41.5642 3.03668 38.7812 3.03668 35.6597C3.03668 32.538 3.58232 29.755 4.67361 27.3104C5.80252 24.8658 7.30775 22.7973 9.1893 21.1049C11.1085 19.4126 13.2534 18.1338 15.6241 17.2688C18.0326 16.3662 20.5161 15.9149 23.075 15.9149ZM64.5155 25.7872V43.0497C64.5155 45.6448 63.9134 47.8637 62.7092 49.7066C61.5426 51.5494 59.9245 52.9597 57.8549 53.9376C55.7851 54.9155 53.4144 55.4043 50.7427 55.4043C48.0708 55.4043 45.7002 54.9155 43.6304 53.9376C41.5607 52.9597 39.9238 51.5494 38.7196 49.7066C37.553 47.8637 36.9699 45.6448 36.9699 43.0497V25.7872H46.6785L46.735 40.4547C46.735 42.4104 47.036 43.8396 47.6381 44.7422C48.2778 45.6448 49.3127 46.0962 50.7427 46.0962C52.1726 46.0962 53.1886 45.6448 53.7907 44.7422C54.4305 43.8396 54.7504 42.4104 54.7504 40.4547L54.8067 25.7872H64.5155ZM89.756 36.4493C89.1914 36.1485 88.5893 35.9228 87.9497 35.7725C87.3476 35.5844 86.6326 35.4904 85.8046 35.4904C84.4876 35.4904 83.3211 35.8853 82.3051 36.6751C81.2889 37.4649 80.4611 38.4991 79.8215 39.7779V54.5581H70.1127V25.7872H79.8215V30.9208C80.7246 29.3789 81.7218 28.0438 82.8131 26.9155C83.942 25.7872 85.4095 25.2232 87.2158 25.2232C88.1942 25.2232 89.041 25.3923 89.756 25.7309V36.4493ZM100.32 9.65297C101.412 9.65297 102.409 9.91624 103.312 10.4428C104.253 10.9693 105.005 11.6839 105.57 12.5865C106.134 13.4515 106.417 14.4293 106.417 15.52C106.417 16.573 106.134 17.5509 105.57 18.4535C105.005 19.3561 104.253 20.0707 103.312 20.5971C102.409 21.1238 101.412 21.387 100.32 21.387C98.7022 21.387 97.2911 20.8229 96.0869 19.6945C94.8827 18.5287 94.2806 17.1372 94.2806 15.52C94.2806 13.8652 94.8827 12.4737 96.0869 11.3454C97.2911 10.2171 98.7022 9.65297 100.32 9.65297ZM105.796 25.7872V54.5581H96.0869V33.6852H91.4018V25.7872H105.796ZM125.561 24.9411C127.555 24.9411 129.493 25.3171 131.375 26.0693C133.256 26.8214 134.95 27.8746 136.455 29.2284C137.96 30.5824 139.145 32.1996 140.011 34.0801C140.914 35.9228 141.366 37.9537 141.366 40.1728C141.366 42.3917 140.914 44.4413 140.011 46.3218C139.145 48.1646 137.96 49.763 136.455 51.117C134.95 52.4708 133.256 53.5239 131.375 54.276C129.493 55.0283 127.555 55.4043 125.561 55.4043C123.566 55.4043 121.628 55.0283 119.747 54.276C117.865 53.5239 116.172 52.4708 114.667 51.117C113.161 49.763 111.957 48.1646 111.054 46.3218C110.189 44.4413 109.756 42.3917 109.756 40.1728C109.756 37.9537 110.189 35.9228 111.054 34.0801C111.957 32.1996 113.161 30.5824 114.667 29.2284C116.172 27.8746 117.865 26.8214 119.747 26.0693C121.628 25.3171 123.566 24.9411 125.561 24.9411ZM125.561 34.2494C124.883 34.2494 124.112 34.3997 123.247 34.7006C122.419 35.0015 121.704 35.5844 121.101 36.4493C120.499 37.2768 120.198 38.5179 120.198 40.1728C120.198 41.7899 120.499 43.031 121.101 43.896C121.704 44.7609 122.419 45.3439 123.247 45.6448C124.112 45.9457 124.883 46.0962 125.561 46.0962C126.276 46.0962 127.047 45.9457 127.875 45.6448C128.703 45.3439 129.418 44.7609 130.02 43.896C130.622 43.031 130.923 41.7899 130.923 40.1728C130.923 38.5179 130.622 37.2768 130.02 36.4493C129.418 35.5844 128.703 35.0015 127.875 34.7006C127.047 34.3997 126.276 34.2494 125.561 34.2494ZM172.534 25.7872V43.0497C172.534 45.6448 171.932 47.8637 170.727 49.7066C169.56 51.5494 167.942 52.9597 165.872 53.9376C163.803 54.9155 161.431 55.4043 158.76 55.4043C156.088 55.4043 153.718 54.9155 151.648 53.9376C149.578 52.9597 147.941 51.5494 146.737 49.7066C145.57 47.8637 144.987 45.6448 144.987 43.0497V25.7872H154.696L154.752 40.4547C154.752 42.4104 155.054 43.8396 155.656 44.7422C156.295 45.6448 157.33 46.0962 158.76 46.0962C160.19 46.0962 161.206 45.6448 161.809 44.7422C162.448 43.8396 162.767 42.4104 162.767 40.4547L162.825 25.7872H172.534ZM188.177 24.9411C190.059 24.9411 191.789 25.2232 193.371 25.7872C194.989 26.3137 196.287 27.0472 197.266 27.9874V35.6032C196.287 35.0015 195.177 34.4373 193.935 33.9108C192.693 33.3466 191.358 33.0646 189.927 33.0646C189.025 33.0646 188.215 33.2527 187.501 33.6287C186.823 33.9673 186.485 34.5125 186.485 35.2648C186.485 35.7913 186.692 36.1862 187.104 36.4493C187.519 36.7127 188.328 36.9948 189.532 37.2956L191.282 37.7468C196.287 39.0256 198.79 41.7147 198.79 45.8141C198.79 47.6946 198.225 49.3681 197.096 50.8349C196.004 52.264 194.556 53.3922 192.75 54.2197C190.982 55.0094 189.062 55.4043 186.992 55.4043C184.847 55.4043 182.853 55.1034 181.01 54.5017C179.165 53.8624 177.585 53.0913 176.267 52.1887V44.6294C177.622 45.4567 179.146 46.1525 180.839 46.7167C182.57 47.2807 184.113 47.5628 185.468 47.5628C186.56 47.5628 187.35 47.4312 187.838 47.1679C188.366 46.9048 188.63 46.4346 188.63 45.7576C188.63 45.2311 188.328 44.8362 187.726 44.5729C187.124 44.272 186.258 43.9336 185.13 43.5575L182.251 42.6548C180.144 42.0155 178.601 41.0189 177.622 39.665C176.644 38.2735 176.154 36.5811 176.154 34.5878C176.154 32.5945 176.681 30.8833 177.736 29.4542C178.789 28.0249 180.218 26.9155 182.024 26.1256C183.869 25.336 185.919 24.9411 188.177 24.9411Z" fill="black"/>
<path d="M210.12 15.8585C213.243 15.8585 215.953 16.3286 218.249 17.2688C220.582 18.1714 222.389 19.4501 223.668 21.1049C224.985 22.7597 225.643 24.6778 225.643 26.8591C225.643 28.7772 225.173 30.4319 224.232 31.8234C223.329 33.215 222.143 34.3245 220.675 35.1518C221.843 35.5656 222.934 36.1109 223.949 36.7879C224.966 37.4272 225.775 38.2735 226.377 39.3265C227.017 40.3796 227.337 41.7522 227.337 43.4446C227.337 45.5508 226.659 47.5253 225.304 49.3681C223.949 51.1733 222.087 52.6401 219.717 53.7683C217.345 54.859 214.637 55.4043 211.588 55.4043C209.857 55.4043 207.919 55.3104 205.774 55.1223C203.629 54.9718 201.579 54.765 199.621 54.5017C197.703 54.2385 196.141 53.9752 194.936 53.712V17.3253C197.232 16.8739 199.66 16.5167 202.218 16.2533C204.777 15.9901 207.412 15.8585 210.12 15.8585ZM210.515 25.3923C208.597 25.3923 206.922 25.5428 205.491 25.8437V32.3312H210.798C212.039 32.3312 213.094 32.0303 213.959 31.4285C214.825 30.8268 215.257 29.9431 215.257 28.7772C215.257 27.7617 214.805 26.9532 213.903 26.3514C213.038 25.712 211.907 25.3923 210.515 25.3923ZM205.491 45.4192C206.283 45.6825 207.222 45.8704 208.314 45.9832C209.406 46.0585 210.252 46.0962 210.854 46.0962C212.397 46.0962 213.64 45.7953 214.579 45.1936C215.558 44.5918 216.048 43.708 216.048 42.542C216.048 41.4138 215.502 40.6052 214.41 40.1163C213.319 39.6273 212.002 39.383 210.459 39.383H205.491V45.4192ZM243.255 13.9404V54.5581H233.546V13.9404H243.255ZM258.665 9.65297C259.755 9.65297 260.752 9.91624 261.656 10.4428C262.597 10.9693 263.348 11.6839 263.914 12.5865C264.479 13.4515 264.76 14.4293 264.76 15.52C264.76 16.573 264.479 17.5509 263.914 18.4535C263.348 19.3561 262.597 20.0707 261.656 20.5971C260.752 21.1238 259.755 21.387 258.665 21.387C257.047 21.387 255.635 20.8229 254.431 19.6945C253.227 18.5287 252.625 17.1372 252.625 15.52C252.625 13.8652 253.227 12.4737 254.431 11.3454C255.635 10.2171 257.047 9.65297 258.665 9.65297ZM264.14 25.7872V54.5581H254.431V33.6852H249.746V25.7872H264.14ZM281.808 25.7872V29.5105C282.71 28.2695 283.802 27.1976 285.082 26.2949C286.398 25.3923 288.017 24.9411 289.935 24.9411C292.87 24.9411 295.259 25.9377 297.104 27.9309C298.986 29.9242 299.927 32.8766 299.927 36.7879V54.5581H290.218L290.162 38.311C290.162 36.8819 289.767 35.8853 288.975 35.3211C288.185 34.7194 287.3 34.4185 286.323 34.4185C285.269 34.4185 284.385 34.7006 283.67 35.2648C282.954 35.7913 282.334 36.4306 281.808 37.1828V54.5581H272.099V25.7872H281.808ZM336.277 13.9404V54.5581H326.568V49.763C325.854 51.3426 324.762 52.6777 323.294 53.7683C321.827 54.859 320.059 55.4043 317.989 55.4043C315.844 55.4043 313.831 54.859 311.949 53.7683C310.068 52.6777 308.525 51.0042 307.32 48.7475C306.155 46.4534 305.57 43.5762 305.57 40.1163C305.57 36.8819 306.155 34.1364 307.32 31.8799C308.525 29.6233 310.106 27.9121 312.062 26.7463C314.057 25.5428 316.22 24.9411 318.553 24.9411C320.059 24.9411 321.527 25.2795 322.956 25.9565C324.425 26.5958 325.629 27.4232 326.568 28.4388V13.9404H336.277ZM320.586 34.4185C319.194 34.4185 318.026 34.9827 317.086 36.1109C316.183 37.2391 315.73 38.5744 315.73 40.1163C315.73 41.6582 316.201 42.9557 317.142 44.0088C318.083 45.0618 319.325 45.5885 320.868 45.5885C321.695 45.5885 322.543 45.3815 323.408 44.9678C324.274 44.5166 325.007 43.8583 325.61 42.9934C326.249 42.0908 326.568 40.9436 326.568 39.5521V36.7879C325.741 36.1109 324.8 35.5467 323.747 35.0955C322.731 34.6441 321.677 34.4185 320.586 34.4185ZM355.187 24.9411C356.692 24.9411 358.159 25.2795 359.59 25.9565C361.057 26.5958 362.262 27.4232 363.203 28.4388V25.7872H372.911V54.5581H363.203V49.763C362.488 51.3426 361.396 52.6777 359.929 53.7683C358.461 54.859 356.692 55.4043 354.622 55.4043C352.477 55.4043 350.464 54.859 348.582 53.7683C346.702 52.6777 345.159 51.0042 343.955 48.7475C342.788 46.4534 342.205 43.5762 342.205 40.1163C342.205 36.8819 342.788 34.1364 343.955 31.8799C345.159 29.6233 346.739 27.9121 348.696 26.7463C350.69 25.5428 352.855 24.9411 355.187 24.9411ZM357.219 34.4185C355.827 34.4185 354.661 34.9827 353.72 36.1109C352.816 37.2391 352.365 38.5744 352.365 40.1163C352.365 41.6582 352.835 42.9557 353.776 44.0088C354.717 45.0618 355.958 45.5885 357.501 45.5885C358.33 45.5885 359.176 45.3815 360.041 44.9678C360.907 44.5166 361.64 43.8583 362.242 42.9934C362.883 42.0908 363.203 40.9436 363.203 39.5521V36.7879C362.374 36.1109 361.433 35.5467 360.38 35.0955C359.364 34.6441 358.31 34.4185 357.219 34.4185ZM390.86 24.9411C392.742 24.9411 394.473 25.2232 396.054 25.7872C397.673 26.3137 398.97 27.0472 399.949 27.9874V35.6032C398.97 35.0015 397.861 34.4373 396.618 33.9108C395.377 33.3466 394.041 33.0646 392.61 33.0646C391.708 33.0646 390.899 33.2527 390.184 33.6287C389.507 33.9673 389.168 34.5125 389.168 35.2648C389.168 35.7913 389.375 36.1862 389.788 36.4493C390.202 36.7127 391.011 36.9948 392.215 37.2956L393.965 37.7468C398.97 39.0256 401.473 41.7147 401.473 45.8141C401.473 47.6946 400.908 49.3681 399.779 50.8349C398.687 52.264 397.239 53.3922 395.433 54.2197C393.665 55.0094 391.745 55.4043 389.675 55.4043C387.53 55.4043 385.536 55.1034 383.693 54.5017C381.848 53.8624 380.268 53.0913 378.95 52.1887V44.6294C380.305 45.4567 381.829 46.1525 383.523 46.7167C385.254 47.2807 386.797 47.5628 388.152 47.5628C389.243 47.5628 390.033 47.4312 390.523 47.1679C391.05 46.9048 391.313 46.4346 391.313 45.7576C391.313 45.2311 391.011 44.8362 390.409 44.5729C389.807 44.272 388.942 43.9336 387.813 43.5575L384.934 42.6548C382.828 42.0155 381.285 41.0189 380.305 39.665C379.327 38.2735 378.838 36.5811 378.838 34.5878C378.838 32.5945 379.364 30.8833 380.419 29.4542C381.472 28.0249 382.901 26.9155 384.708 26.1256C386.552 25.336 388.603 24.9411 390.86 24.9411Z" fill="#DE7C01"/>
<path d="M195.078 16.0465V54.5581" stroke="#F1F1F1" stroke-width="2"/>
</svg>
